<?xml version="1.0" standalone="no"?>
<!DOCTYPE svg PUBLIC "-//W3C//DTD SVG 20010904//EN"
 "http://www.w3.org/TR/2001/REC-SVG-20010904/DTD/svg10.dtd">
<svg version="1.0" xmlns="http://www.w3.org/2000/svg"
 width="300.000000pt" height="300.000000pt" viewBox="0 0 300.000000 300.000000"
 preserveAspectRatio="xMidYMid meet">
<metadata>
Created by potrace 1.10, written by Peter Selinger 2001-2011
</metadata>
<g transform="translate(0.000000,300.000000) scale(0.100000,-0.100000)"
fill="#000000" stroke="none">
<path d="M1245 2495 c-54 -17 -33 -18 30 -1 28 8 41 14 30 14 -11 0 -38 -5
-60 -13z"/>
<path d="M1991 2419 c136 -71 269 -199 341 -325 33 -59 49 -74 22 -21 -71 138
-224 287 -371 361 -83 41 -76 30 8 -15z"/>
<path d="M1024 2411 c-100 -55 -171 -113 -258 -211 -47 -53 -136 -194 -136
-215 0 -5 21 27 47 73 78 139 214 272 357 348 33 19 57 34 51 34 -5 0 -33 -13
-61 -29z"/>
<path d="M1453 2431 c-28 -13 -104 -110 -144 -185 l-32 -60 24 -15 c68 -43
109 -112 109 -183 0 -24 9 -32 73 -62 39 -19 110 -57 156 -85 l83 -50 42 21
c59 30 148 30 204 -2 96 -54 129 -170 78 -273 -27 -56 -60 -86 -115 -105 -66
-23 -149 -9 -200 34 l-29 24 -64 -34 c-35 -18 -109 -53 -165 -77 l-103 -44 0
-38 c0 -21 -9 -55 -20 -76 -20 -41 -85 -101 -108 -101 -15 0 -16 4 35 -152 20
-59 48 -128 63 -152 l28 -44 89 -8 c425 -35 769 212 879 632 35 131 37 328 6
445 -58 215 -214 410 -406 504 -50 25 -126 54 -170 65 -89 22 -280 35 -313 21z
m214 -42 c268 -37 479 -192 597 -441 43 -90 59 -180 59 -323 0 -192 -41 -333
-140 -486 -46 -70 -140 -169 -194 -202 -19 -12 -36 -24 -39 -27 -8 -10 -94
-48 -157 -69 -80 -27 -171 -41 -269 -41 -123 0 -140 9 -179 94 -18 39 -41 97
-50 129 l-17 58 49 52 c30 31 56 72 67 102 23 66 30 77 47 86 8 4 67 33 133
64 l118 55 57 -27 c78 -39 166 -39 233 1 52 30 102 98 119 160 23 85 -15 197
-84 247 -73 53 -156 64 -245 35 l-53 -18 -67 39 c-37 21 -92 52 -122 67 -76
40 -77 41 -90 98 -8 33 -28 69 -57 105 -50 62 -51 74 -6 140 47 68 70 92 94
102 32 13 102 13 196 0z"/>
<path d="M1205 2381 c-139 -48 -218 -96 -310 -186 -30 -29 -55 -58 -55 -64 0
-6 16 -11 35 -11 18 0 57 -5 85 -11 50 -11 51 -11 90 25 23 20 60 41 85 48 41
11 48 17 70 66 14 29 37 72 53 95 41 62 44 67 35 66 -4 0 -44 -13 -88 -28z
m-5 -58 c0 -3 -11 -26 -25 -49 -18 -31 -38 -49 -70 -63 -25 -11 -60 -31 -78
-45 -26 -20 -39 -24 -62 -18 -16 5 -30 13 -33 20 -2 6 22 30 52 54 87 67 216
128 216 101z"/>
<path d="M1144 2086 c-43 -19 -64 -53 -64 -104 0 -37 6 -50 34 -78 30 -30 40
-34 86 -34 45 0 56 4 80 30 94 101 -8 241 -136 186z m114 -53 c19 -26 15 -80
-8 -103 -44 -44 -130 -8 -130 54 0 32 18 57 50 69 24 10 74 -2 88 -20z"/>
<path d="M750 2009 c-24 -41 -56 -124 -76 -198 -33 -129 -27 -305 16 -444 l19
-62 93 7 c51 3 103 7 116 7 15 1 22 7 22 21 0 56 59 141 113 164 l27 12 5 146
5 145 -26 14 c-35 18 -73 85 -80 142 -6 45 -7 46 -53 56 -25 5 -72 12 -103 16
-57 7 -57 7 -78 -26z m166 -30 c15 -5 28 -25 39 -59 9 -28 35 -73 57 -101 l40
-51 -4 -108 -3 -107 -51 -46 c-31 -28 -60 -66 -72 -96 -12 -27 -29 -51 -38
-55 -26 -10 -142 -7 -149 4 -39 64 -54 346 -23 450 32 109 65 178 87 183 21 4
90 -4 117 -14z"/>
<path d="M2381 2010 c0 -3 11 -34 25 -70 13 -36 22 -51 19 -35 -6 28 -43 116
-44 105z"/>
<path d="M1353 1841 c-27 -34 -81 -61 -134 -68 l-39 -6 0 -116 0 -117 47 -12
c30 -8 60 -27 86 -53 l41 -40 95 42 c53 23 121 54 152 70 l57 28 -5 45 c-3 24
-1 58 5 74 10 28 8 30 -52 65 -71 41 -218 117 -226 116 -3 0 -15 -13 -27 -28z
m127 -62 c41 -23 87 -48 103 -56 25 -13 27 -19 27 -74 l0 -60 -102 -49 c-138
-65 -140 -65 -174 -37 -16 13 -48 34 -71 46 l-43 21 0 80 0 79 38 10 c21 6 60
27 88 46 27 19 51 35 54 35 3 0 39 -19 80 -41z"/>
<path d="M1800 1727 c-14 -7 -34 -29 -45 -49 -18 -34 -19 -40 -5 -79 20 -56
57 -82 115 -82 53 0 88 26 105 80 25 74 -25 143 -103 143 -23 0 -53 -6 -67
-13z m123 -58 c17 -23 18 -31 8 -62 -13 -39 -26 -47 -75 -47 -38 0 -62 22 -70
64 -12 69 93 103 137 45z"/>
<path d="M1100 1422 c-22 -10 -42 -32 -54 -56 -17 -36 -18 -43 -5 -80 26 -73
127 -112 187 -70 74 51 66 177 -13 210 -45 18 -73 18 -115 -4z m123 -53 c40
-49 1 -129 -62 -129 -88 0 -116 117 -36 151 30 13 78 2 98 -22z"/>
<path d="M909 1226 c-3 -3 -39 -6 -82 -7 -42 -2 -77 -4 -77 -6 0 -2 16 -30 36
-61 82 -127 235 -254 382 -316 34 -14 64 -26 66 -26 3 0 -6 24 -19 53 -13 28
-37 96 -52 150 -22 78 -31 97 -45 97 -33 0 -95 38 -130 80 -30 35 -64 50 -79
36z m76 -85 c24 -22 59 -47 78 -55 19 -7 38 -19 41 -25 15 -24 53 -166 45
-169 -13 -5 -130 66 -188 116 -59 51 -131 137 -131 157 0 9 14 15 38 17 59 6
71 1 117 -41z"/>
<path d="M2354 1178 c-33 -75 -95 -161 -168 -237 -81 -83 -156 -138 -260 -188
-39 -18 -60 -31 -46 -27 122 33 315 184 407 320 45 65 97 164 90 170 -2 2 -12
-15 -23 -38z"/>
<path d="M680 1140 c60 -117 221 -279 340 -340 38 -19 20 -5 -46 38 -89 58
-188 155 -245 241 -56 84 -68 99 -49 61z"/>
</g>
</svg>
